<?xml version="1.0" standalone="no"?>
<!DOCTYPE svg PUBLIC "-//W3C//DTD SVG 1.1//EN" "http://www.w3.org/Graphics/SVG/1.1/DTD/svg11.dtd" >
<svg>
<metadata>
Created by FontForge 20120731 at Sun Jun  9 01:37:09 2019
 By www-data
Copyright (c) 2013 by CloutierFontes. All rights reserved.
</metadata>
<defs>
<font id="CFPeruAdventure-Regular" horiz-adv-x="1000" >
  <font-face 
    font-family="CF Peru Adventure"
    font-weight="400"
    font-stretch="normal"
    units-per-em="1000"
    panose-1="0 0 0 0 0 0 0 0 0 0"
    ascent="800"
    descent="-200"
    cap-height="698"
    bbox="22 -103 948 800"
    underline-thickness="50"
    underline-position="-50"
    unicode-range="U+000D-FB02"
  />
<missing-glyph horiz-adv-x="500" 
d="M63 0v800h375v-800h-375v0zM125 63h250v675h-250v-675v0z" />
    <glyph glyph-name=".notdef" horiz-adv-x="500" 
d="M63 0v800h375v-800h-375v0zM125 63h250v675h-250v-675v0z" />
    <glyph glyph-name="NULL" horiz-adv-x="0" 
 />
    <glyph glyph-name="NULL" horiz-adv-x="0" 
 />
    <glyph glyph-name="nonmarkingreturn" unicode="&#xd;" horiz-adv-x="250" 
 />
    <glyph glyph-name="space" unicode=" " horiz-adv-x="250" 
 />
    <glyph glyph-name="exclam" unicode="!" 
 />
    <glyph glyph-name="quotedbl" unicode="&#x22;" 
 />
    <glyph glyph-name="numbersign" unicode="#" 
 />
    <glyph glyph-name="dollar" unicode="$" 
 />
    <glyph glyph-name="percent" unicode="%" 
 />
    <glyph glyph-name="ampersand" unicode="&#x26;" 
 />
    <glyph glyph-name="quotesingle" unicode="'" 
 />
    <glyph glyph-name="parenleft" unicode="(" 
 />
    <glyph glyph-name="parenright" unicode=")" 
 />
    <glyph glyph-name="asterisk" unicode="*" 
 />
    <glyph glyph-name="plus" unicode="+" 
 />
    <glyph glyph-name="comma" unicode="," 
 />
    <glyph glyph-name="hyphen" unicode="-" 
 />
    <glyph glyph-name="period" unicode="." 
 />
    <glyph glyph-name="slash" unicode="/" 
 />
    <glyph glyph-name="zero" unicode="0" 
 />
    <glyph glyph-name="one" unicode="1" 
 />
    <glyph glyph-name="two" unicode="2" 
 />
    <glyph glyph-name="three" unicode="3" 
 />
    <glyph glyph-name="four" unicode="4" 
 />
    <glyph glyph-name="five" unicode="5" 
 />
    <glyph glyph-name="six" unicode="6" 
 />
    <glyph glyph-name="seven" unicode="7" 
 />
    <glyph glyph-name="eight" unicode="8" 
 />
    <glyph glyph-name="nine" unicode="9" 
 />
    <glyph glyph-name="colon" unicode=":" 
 />
    <glyph glyph-name="semicolon" unicode=";" 
 />
    <glyph glyph-name="less" unicode="&#x3c;" 
 />
    <glyph glyph-name="equal" unicode="=" 
 />
    <glyph glyph-name="greater" unicode="&#x3e;" 
 />
    <glyph glyph-name="question" unicode="?" 
 />
    <glyph glyph-name="at" unicode="@" 
 />
    <glyph glyph-name="A" unicode="A" horiz-adv-x="651" 
d="M663 -13l-63 -13h-103l-60 182h-115q-12 0 -22.5 -20.5t-19 -47t-14 -50.5t-7.5 -31l-41 -13l-53 9h-84l-38 8l204 669h315l54 -21l10 -115l-60 -26v-36l97 -428v-67zM563 578v54q0 6 -1.5 10t-1.5 6l3 5h-61q-7 0 -16 -2.5t-15 -7.5q-16 -41 -30 -86.5t-28 -76.5l18 -76
l72 67l-13 39q0 4 3.5 11.5t9.5 14.5t14 12.5t18 5.5h24zM443 653h-23l-27 -98q0 -8 3.5 -15.5t8.5 -12.5zM390 649l-8 7h-12v-31l-20 -78q10 3 16 10.5t9 16.5t4.5 18t3.5 16zM511 430l-2 17l-70 -59l3 -10zM524 397l-7 14l-25 -22l8 -11zM500 378l-8 11l-41 -28l1 -17z
M343 628l-4 25h-72l-70 -252l119 30l23 75q-2 0 -2.5 -1.5t-6.5 -1.5q-7 0 -7.5 9t-2.5 15zM420 304v35l-19 20v43l-19 78l-39 -128v-38l57 -14zM576 178l-44 199l-83 -64v-33l-25 -3l-74 -92l21 -5h47l29 7q6 1 11 -3.5t9 -11t6.5 -13t3.5 -9.5h15zM580 151l-93 -28l6 -21
l93 37zM592 123l-96 -45l8 -14q9 5 20 11.5t22.5 12.5t22.5 11t20 8q5 5 4.5 9t-1.5 7zM613 49l-18 38l-72 -38h90zM300 390l-2 15l-108 -38l-7 -18zM301 359l-124 -34l-12 -27l129 47zM386 273q-5 0 -11 2.5t-11 4.5l-58 -95q2 -2 6 -4q2 -1 3 -1zM333 286l-21 4h-17
q-6 0 -9.5 3.5t-6.5 5.5l3 26l-130 -51l-62 -213h116l33 123q10 0 15 -0.5t9 -3.5zM516 581l-26 -4l-3 19l7 7h15q2 -2 4.5 -8t2.5 -14zM483 542q0 -2 -2.5 -7.5t-4.5 -10.5h-19l-7 7v11l11 11h11zM310 571q0 -6 -10.5 -14t-18.5 -10v43h18l11 -7v-12zM526 274l-15 -7l-14 7
v15l11 8q5 0 10.5 -3t7.5 -8v-12zM280 478q-5 -2 -11 -4t-11 -7q-5 2 -11.5 9.5t-6.5 12.5q2 3 7 7t11 4t12.5 -7t9.5 -15zM513 205l-8 -11h-11l-11 11v11l8 7q5 -2 11 -2.5t11 -0.5v-15zM230 232q-3 -5 -8 -12.5t-10 -12.5q-2 0 -7.5 4.5t-7.5 6.5v15q2 2 5.5 6.5t8.5 7.5
q5 0 10.5 -5t8.5 -10zM163 114l-11 -10l-22 4v15l11 7l22 -4v-12z" />
    <glyph glyph-name="B" unicode="B" horiz-adv-x="606" 
d="M605 183q0 -5 -4.5 -12t-4.5 -14q0 -18 -19.5 -47t-47.5 -56t-59.5 -46.5t-53.5 -19.5h-350l-37 11l43 338l10 300l14 44l211 27h79q31 0 65.5 -13t64 -37t50 -59t22.5 -79l4 -22q-1 -12 -4 -27t-10 -29.5t-19.5 -28t-33.5 -23.5q10 -8 22 -15.5t20 -16.5q3 -5 9.5 -16
t13 -24t11 -25.5t4.5 -18.5v-91zM471 621q-2 0 -7.5 2t-7.5 2l-54 -78v-15zM435 641q0 1 -1 1.5t-2 2.5q-1 1 -2 3l-54 -83zM532 527q-1 20 -12.5 40t-26.5 28q-17 -20 -39 -39t-38 -42q-9 -13 -10.5 -30.5t-8.5 -29.5q-9 -15 -20 -21.5t-22.5 -9.5t-22.5 -4t-20 -5v-27
l-17 -58h35l70 -37l65 68q-5 5 -9 8.5t-5 7.5v20q16 9 31 24.5t26 34.5t17.5 38t6.5 34zM411 671h-188l-111 -30l-10 -169l76 34v60l86 29h49l41 -10zM378 493q0 15 -10 29t-24.5 24t-30.5 16t-28 6q-11 0 -25.5 -9t-14.5 -26l2 -91h53q2 0 14.5 4t26.5 10.5t25.5 16
t11.5 20.5zM500 338l-7 8l-81 -73l2 -11zM515 311q-9 -6 -22 -14.5t-26.5 -18.5t-26.5 -21t-23 -20q-5 -5 -2 -7.5t1 -7.5l105 79zM176 476l-71 -35q1 0 1 -2t-0.5 -5t-0.5 -5t2 -2q6 1 15 5t19 9t19.5 10.5t15.5 10.5q5 4 1.5 7.5t-1.5 6.5zM545 170v87q0 11 -12 21
q-23 -15 -48.5 -29.5t-45.5 -33.5t-33.5 -41t-33.5 -39q-8 -7 -18.5 -9t-18.5 -1v-15l-40 -68l165 10q13 0 28 14.5t27.5 34t21 39t8.5 30.5zM177 418q0 1 0.5 4.5t0.5 6.5v8l-76 -38v-21q7 0 19 5t23.5 12t20.5 14t12 9zM382 186v58q0 13 -9.5 23t-22.5 17t-25.5 10.5
t-19.5 3.5t-17 -2t-17 -2l-5 4l6 -32v-39l-10 -50v-35h31q8 0 22.5 4.5t28.5 11.5t25 14.5t13 13.5zM288 396v12l-108 -23h-10l-75 -44l-16 -142q2 0 2.5 -2t6.5 -2h22l91 20l11 53q0 4 -0.5 9.5t-3.5 9.5q6 9 14.5 15t17.5 10.5t17 7.5t13 6q3 9 6 20t6 21t4.5 18t1.5 11z
M191 188l-75 -17h-40v-16l112 10zM301 114l-66 -11q8 -2 7 -10.5t-3 -11.5q-2 0 -5 -1.5t-9 -1.5t-9 2t-8 7l3 21q-14 1 -18 13t-5 20l-116 -17l-10 -75l199 -10zM525 524q1 -2 -4 -13t-14 -13h-14q-3 3 -4 5t-1 9q0 4 4 11t11 12q11 0 22 -11zM278 632h-43v11q0 6 3 9.5
t8 8.5h15q2 -5 7 -10t10 -7v-12zM445 393q-8 -5 -16 -8.5t-16 -6.5q-1 0 -3 1q-4 2 -5 4q1 5 7.5 16t13.5 16q2 0 7.5 -2t7.5 -2q0 -2 1 -7.5t3 -10.5zM185 609q-5 -2 -13 -6.5t-13 -4.5l-7 12v18h22q3 -2 7 -8t4 -11zM521 179l-10 -10h-12l-11 28q7 5 7 11q11 0 15.5 -1.5
t6.5 -1.5q4 -3 4 -26zM468 96l-11 -8h-15q-3 5 -3.5 13.5t7.5 16.5q10 0 14.5 -2t7.5 -2v-18zM182 327q-7 -12 -19 -19l-15 11v15l8 11h18q2 -3 3.5 -8t4.5 -10zM168 233q-3 -4 -29 -4q-2 4 -1 12.5t1 13.5h22q2 -3 4.5 -8.5t2.5 -13.5zM165 69l-22 -11q-2 3 -5 7t-3 10
q0 10 11 18q2 2 8 -1t11 -8v-15z" />
    <glyph glyph-name="C" unicode="C" horiz-adv-x="573" 
d="M600 693l-64 -124q-11 2 -17 6t-12 4t-24.5 -7.5t-33.5 -11.5q-5 -2 -12 -4.5t-15 -5.5q-10 -4 -22 -8.5t-25 -11t-25.5 -16t-22.5 -24.5q-16 -23 -28.5 -50.5t-27.5 -56.5q-8 -13 -11 -32t-3 -27q0 -13 3.5 -29.5t9 -34.5t11 -36.5t9.5 -35.5q9 -3 22 -7t25 -7.5
t22 -5.5t13 -2h69q6 0 21 6.5t26 16.5l24 -4q8 0 16 2t14 2h41v-132q0 -11 -15.5 -20.5t-35.5 -16.5t-39 -12t-25 -6l-173 4q-23 6 -47.5 9.5t-50.5 21.5q-42 29 -71 62t-47.5 67.5t-27 69t-8.5 66.5l20 165q5 37 29.5 76.5t58 73t72 59t71.5 34.5q5 1 13 4t17 6.5t16.5 6
t11.5 2.5h25l11 13l134 -13l78 -24v-12zM523 696h-76q5 -2 8 -6t5 -9q-9 -9 -16 -9l-57 27l-67 -18l31 -75l87 20h51zM330 590q-5 9 -8.5 20t-8.5 22t-11.5 20.5t-17.5 16.5q0 -3 -6 -4.5t-8 -5.5q11 -9 17 -20.5t11.5 -21.5t12.5 -18t19 -9zM296 574q-4 6 -10 16.5
t-13.5 21.5t-16.5 19t-19 8q-7 0 -11 -3t-6 -6l65 -75q5 5 8.5 10.5t2.5 8.5zM267 534l-75 75q-51 -53 -78.5 -113t-36.5 -112l-4 -74l15 -61l122 84v44zM91 505h-5l-4 -16h5zM529 73v86h-14l-40 -17h-21l-67 -96h35zM420 142q-8 -3 -16.5 -4t-13.5 -3l-47 -92h16zM200 299
q-9 -9 -24.5 -17.5t-30.5 -18.5t-26.5 -23t-14.5 -31zM366 135h-24q-13 0 -29 8t-32 21t-30 29t-23 32l-81 -81q21 -24 41 -38.5t41 -24t42 -17.5t44 -18zM216 260q0 2 -2 7.5t-2 7.5l-92 -91l11 -18zM476 650l-7 -8h-15l-4 15l7 11h12q0 -2 3.5 -7.5t3.5 -10.5zM203 500
l-8 -8h-11q-3 2 -5.5 7.5t-5.5 10.5q0 2 3 6t5 6q10 0 14.5 -2t7.5 -2v-18zM207 447l-4 -18q-3 0 -9 3t-11 8l4 22h12q2 -2 5 -7.5t3 -7.5zM513 113l-8 -7h-14l-11 7l11 22q5 -2 12.5 -8t9.5 -14zM160 442q0 -12 -11 -23l-11 -3l-8 7v15l11 7zM320 105q0 -3 -4.5 -8.5
t-6.5 -7.5q-13 0 -18 2t-7 2v11l7 8h18zM256 161q-5 -10 -3 -22q-7 0 -15 3.5t-11 7.5q-2 4 2 10t9 9q2 0 7.5 -3t10.5 -5z" />
    <glyph glyph-name="D" unicode="D" horiz-adv-x="675" 
d="M682 285l-33 -76q0 -5 3 -12.5t3 -15.5q-5 -2 -11 -3t-9 -6q-12 -22 -27.5 -42t-33.5 -37.5t-37.5 -30.5t-38.5 -20q-33 -13 -71.5 -18t-79.5 -10l-106 -13l-141 -7l-41 7q-2 4 -3.5 12t-4 15.5t-6 14t-9.5 9.5l23 51v236l-7 184l10 44l-13 97q3 11 5 23.5t6 22.5
q10 5 21 6.5t26 4.5l254 10l36 -4q20 -3 45 -13t51 -25.5t51 -36t46 -45.5q17 -20 30.5 -47l23.5 -47q4 -10 10.5 -23.5t12.5 -26.5t10.5 -23.5t4.5 -13.5v-141zM542 609q0 2 -4.5 5.5t-7.5 6.5l-68 -85q2 -5 4.5 -11t7.5 -11zM572 576q-2 2 -5 5.5t-3 5.5l-85 -81
q0 -2 2 -7.5t2 -7.5zM505 642q-9 9 -31 20.5t-48.5 21t-53.5 16.5t-45 7h-60l-85 -11l101 -75h14l147 -67zM629 319v120l-38 105q-9 -9 -23 -17t-27.5 -18t-24 -23t-14.5 -30l17 -79l-13 -72l112 -37zM239 622l-111 72q-3 0 -8 -2t-8 -2l88 -79zM612 243l-123 37q0 -1 -2 -5
q-1 -2 -1 -3l115 -55q2 5 6.5 13t4.5 13zM482 384q0 17 -3 34t-15 39q-16 12 -31.5 31t-27.5 39l-83 24l-106 -14v-356h104q6 0 11 2t7 3q27 12 53 34.5t46.5 50t32.5 57t12 56.5zM198 381l-13 202l-105 94v-323zM585 200l-115 51l-74 -68l-27 -112q25 6 56 15.5t61.5 25
t57 37t41.5 51.5zM185 349q-5 0 -10.5 2.5t-7.5 2.5l-63 -17h-18l24 -10zM365 164q-5 -3 -10.5 -3.5t-8.5 -0.5l-30 -96q3 3 9 3.5t16 0.5zM186 288v32l-100 -23v-29zM312 150h-65l-53 -13l-19 19l13 111l-105 -30v-96q23 3 26 -18q-8 -8 -16.5 -11t-15.5 -5v-32l211 -14z
M429 646q1 -4 -3 -10t-9 -9q-13 7 -21 21q-1 4 2.5 9t8.5 7q5 -2 12 -7.5t10 -10.5zM358 654h-18l-14 11v11l7 8h21q4 -3 4 -30zM592 416q0 -3 -4.5 -13t-14.5 -12l-11 23q2 4 4 10.5t4 6.5h15q2 -3 4.5 -6t2.5 -9zM599 363q0 -8 -2 -12t-2 -6q-5 0 -13 4t-16 9v15l7 7
q2 1 13 -3.5t13 -13.5zM492 168l-11 -7q-13 5 -19 14v12l11 7q3 0 8.5 -2.5t10.5 -4.5v-19zM139 521l-29 -4q-8 8 -8 19q3 3 7.5 7t10.5 4q7 0 11.5 -4.5t7.5 -9.5v-12zM135 448l-7 -7h-15l-11 11q0 2 3 7.5t5 7.5q10 0 14.5 -1.5t7.5 -1.5q0 -3 1.5 -8t1.5 -8zM445 130
q0 -5 -2.5 -12t-9.5 -7h-17l-4 19q2 2 8.5 3.5t17.5 3.5zM148 190q0 -8 -2.5 -14t-4.5 -8q-2 0 -8 3t-11 8l4 15zM179 122l-11 -11q-11 0 -15.5 2t-6.5 2v15l7 7l26 -4v-11z" />
    <glyph glyph-name="E" unicode="E" horiz-adv-x="544" 
d="M548 191l-10 -121q-2 -8 -3.5 -17.5t-4.5 -17.5q-12 -5 -24.5 -12t-25.5 -15l-377 -16l-58 31l13 18v89l-13 65l12 523l276 10q5 -1 10 4l10 10h13q7 0 8 -5t8 -5q6 0 13 3t15 3l38 -6l34 3q6 0 12.5 -1t12 -4.5t9 -10.5t2.5 -19q0 -10 -2 -17.5t-4 -15.5
q5 -13 7.5 -27.5t2.5 -21.5q0 -42 -24 -62.5t-58 -20.5h-176q-1 -14 -5 -27.5t5 -26.5h227v-158q1 -6 -5 -24.5t-12 -32.5q-10 -3 -25.5 -7t-22.5 -4h-166v-48h254v-16h34zM468 600v107h-62l-37 -107h99zM371 683v22l-56 -106q26 0 30 3zM322 692l-53 -90q17 6 25.5 17.5
t13 24.5t7 26t7.5 22zM447 339v109h-28l-44 -109h72zM291 699h-202v-187l43 21q-7 10 -7 23l9 9h12q5 -5 6.5 -10t3.5 -10l59 24q-6 16 -1 26l34 10zM388 458h-16l-37 -78v-11l13 -12l-3 -3q-1 0 -1 1l-14 13l-15 -28h36zM345 458h-23l-53 -126l29 7zM225 532v9h-19
l-124 -60v-22zM228 472v29l-146 -73v-29zM291 451h-12q-5 -5 -6 -10t-2 -9t-2.5 -7.5t-8.5 -6.5l-22 6l-11 28l-151 -91v-182h24l131 37v11l-29 69l29 39q5 0 10 1t10 3zM486 79v96h-55q-12 12 -18 10l-268 -116h278zM345 178h-35l-224 -84v-19zM232 187l-146 -43v-15z
M211 644l-3 -29l-16 3q-7 4 -6 15.5t6 17.5q3 1 8.5 -2t10.5 -5zM155 619q-4 0 -10.5 3t-12 7.5t-9.5 9.5t-4 8v17q2 0 7.5 2t17.5 2l11 -31v-18zM208 384l-7 -25q-2 0 -7.5 1.5t-7.5 1.5q-3 4 -4 12.5t7 16.5q3 0 8.5 -2.5t10.5 -4.5zM448 125l-29 -3l-7 15q2 2 7 6.5
t11 4.5t9.5 -3t8.5 -8v-12zM408 87l-4 -15q-8 0 -14 2.5t-8 4.5v12l7 7q3 1 8.5 -2.5t10.5 -8.5zM181 259l-18 -4l-8 8l4 18h15q2 -2 4.5 -8t2.5 -14zM131 265q-13 0 -18 2t-8 2q0 10 2 15t2 7q10 0 15 -1.5t7 -1.5v-23z" />
    <glyph glyph-name="F" unicode="F" horiz-adv-x="472" 
d="M208 614l-19 -4l-8 8v10q0 6 3 10t8 9h16q8 -7 6 -17t-6 -16zM124 596q0 -7 -7 -19q-12 0 -17.5 2t-7.5 2v12l14 10q2 1 7.5 -2t10.5 -5zM481 629l-10 -126h-221q-5 -5 -5 -18l-7 -47q-3 -11 8 -21t24 -10h199v-153l-109 -27h-116l-9 -222q-5 -5 -12 -8t-14 -4h-140
l-14 42v17l-14 400l4 140l-13 68h14q3 0 7 -3.5t8 -9t7 -10.5t3 -8v-139q29 7 60.5 16.5t67.5 23.5q5 4 6 11t4 15q12 5 30 11t24 6h175l-9 67h-123l-244 17v15l14 26h351l44 -22zM371 667l-30 5l-50 -5h80zM422 297v86q-6 0 -11 2t-11 2q-18 0 -30 -9.5t-21.5 -23
t-16.5 -29.5t-14 -28h104zM336 371v12h-6v-12h6zM314 343l-32 -42q7 3 13 8.5t10 12.5t6 12.5t3 8.5zM191 493h-28l-94 -37v-49zM298 380h-52l-23 -7q-8 1 -13 8.5t-8.5 16t-5.5 16.5t-2 11v35l-89 -47q3 -17 -9.5 -24t-22.5 -6v-109l106 -30h19l-3 27l41 29l11 -3zM194 207
q0 3 -2.5 8.5t-4.5 7.5l-99 12q2 0 5.5 -2.5t5.5 -2.5l74 -23h21zM198 176l-93 28l-27 -4v-102l14 -74h95zM184 393q0 -2 1 -14.5t-2 -14.5l-25 7v22h7q0 2 8.5 1t10.5 -1zM188 288l-11 -4q-3 -1 -8.5 2.5t-10.5 8.5l4 18h15q3 -5 7 -12.5t4 -12.5zM148 324l-11 -7h-15
q-2 2 -4.5 5t-2.5 10q0 6 1.5 9t1.5 6h11q7 0 10.5 -3t8.5 -8v-12zM158 122q0 -5 -5 -10.5t-10 -7.5l-18 4v14l7 8h18z" />
    <glyph glyph-name="G" unicode="G" horiz-adv-x="664" 
d="M659 32l-149 -44h-146q-3 0 -16.5 3t-31 7.5l-35 9t-28.5 8.5q-13 5 -30.5 12.5t-30.5 17.5q-21 17 -41 41.5t-45 44.5q-5 13 -16 31t-21.5 38t-18.5 40.5t-8 38.5v116q0 2 3 11.5t7.5 22.5t8.5 27.5t6 26.5q7 48 37.5 89.5t72.5 73.5t90 52.5t90 25.5l146 -3l125 -24
v-92q0 -12 -8 -31t-21 -36t-30.5 -27t-35.5 -4l-63 10l-143 -23q-6 -2 -14.5 -3.5t-16 -4.5t-12.5 -9t-3 -16q-20 0 -30 -12t-16 -28.5t-10 -34.5t-13 -31v-53q0 -5 4 -7.5t8.5 -3.5t9 -1h4.5q0 -2 -2 -7.5t-4 -10.5q7 -14 29 -28.5t47.5 -26t50 -19t38.5 -7.5h63q8 0 18 12
v32q-4 4 -13 2l-46 -13l-67 182q4 6 16 14t15 7l192 14q10 0 24 -2t27.5 -8t23 -16t9.5 -26v-358zM595 674l-72 14l-51 -102q2 0 5 -3l2 -2h89zM491 683v12h-19l-53 -109q24 0 28 -4zM441 679v19h-15l-47 -113h15zM382 673q0 13 -4 22h-12q-26 -8 -52.5 -15.5t-51.5 -18
t-48 -26t-42 -39.5l75 -64l41 28q-2 4 -4 13t3 19h16q5 -6 5.5 -10.5t0.5 -9.5l49 10zM605 396v12l-16 2l-173 -93v-1q0 -2 1 -3q0 -2 1 -4zM552 411l-37 -2l-113 -60l5 -15zM458 402h-69v-12l10 -18zM611 127v244h-18l-101 -51q5 -8 10.5 -18.5t5.5 -15.5v-67
q19 -12 33.5 -31.5t25.5 -41.5t19 -43.5t14 -37.5zM225 506l-75 69l-18 -18v-11zM581 54l-71 141q-2 -5 -7 -11t-5 -11l44 -100q0 -8 1.5 -13t1.5 -6h36zM205 478l-92 43l-18 -43h110zM525 45v19l-44 101h-15q-8 -5 -13 -11.5t-8 -11.5q5 1 10 0t10 -6v-15l-6 -6h-12
q-9 10 -13 20l-86 -90h177zM195 449h-113l-17 -96v-48l85 13h19q3 -2 6 -4.5t6 -5.5l-3 42zM425 157l-29 5l-101 -99l15 -8h21zM372 167l-11 8h-15l-91 -99l15 -4zM185 286v18q-3 0 -6.5 -3.5l-5.5 -5.5l-26 3l-72 -14v-14l8 -12zM318 184l-128 84l-101 -34q4 -20 20.5 -43
t39 -44.5t46.5 -38t42 -23.5zM332 632q-3 0 -9 3t-11 8v25h20v-36zM591 313l-7 -8q-2 0 -8 2.5t-11 4.5q0 3 3 9t8 11q5 -2 10 -8t5 -11zM262 589l-8 -7h-10q-7 0 -10.5 3t-8.5 8v11l11 11q8 0 12 -2t6 -2zM545 287q-17 -8 -33 0v14l7 7h15l11 -11v-10zM582 254l-11 -19h-12
l-7 8v18h18zM168 419q0 -6 -2 -5.5t-2 -1.5q-10 0 -15 1.5t-7 1.5q0 3 -2 7.5t-2 14.5q8 8 23 8l7 -11v-15zM445 70l-5.5 -5.5t-5.5 -6.5l-19 4v19h19zM132 372q0 -2 -4 -4.5t-6 -2.5h-20v16q2 2 6 5t4 5h12l8 -7v-12zM221 221q0 -8 -2.5 -14t-4.5 -9h-11l-15 12l8 21z
M241 139l-7 -7h-15q-2 2 -4.5 8.5t-2.5 14.5q2 -1 13 0.5t16 -1.5v-15zM165 166l-15 -4l-15 7l4 19q10 0 15 -2t7 -2q0 -2 2 -6t2 -12z" />
    <glyph glyph-name="H" unicode="H" horiz-adv-x="650" 
d="M635 650l-13 -443l-10 -117l-31 -76h-158q-5 6 -11.5 14.5t-6.5 15.5v85q-5 3 -11.5 4.5t-8.5 6.5l14 24v85h-137l-7 -126q-2 -10 -4.5 -23t-7 -26.5t-13 -28t-23.5 -27.5l-27 7h-50l-73 -10q-6 -2 -10 1t-6.5 7.5t-4 8.5t-1.5 6l23 432l-10 210q2 5 9.5 8t12.5 4
l154 -11q2 -2 3 -6.5t3 -9.5l13 10h13v-227h158v240h193zM584 543v116h-145l10 -116h135zM585 506q-5 6 -15.5 12.5t-24.5 6.5l-96 -11l-4 -26l13 -53l-46 -112l13 -43v-55l150 74v187h-124v7q15 15 26 15h69q7 0 16.5 -3t22.5 1zM425 418h-19l-54 -107q13 1 23.5 1t18.5 -2
zM570 249l1 25l-145 -73l1 -17zM201 556v108h-122l10 -189zM378 421h-26l-54 -115l29 -4zM570 224l-140 -62l-1 -23l141 67v18zM207 508l-4 19l-116 -74l-2 -20zM565 73l4 108l-137 -63v-45h133zM214 465q0 10 -1.5 15.5t-1.5 7.5q-30 -17 -63 -36.5t-62 -40.5q-4 -3 -4 -10
t1 -9l124 72zM328 418h-101q-6 0 -11 7t-8 12q0 5 2.5 7t0.5 4q-23 -13 -48.5 -28t-47 -33t-36 -38.5t-14.5 -45.5v-51l140 -27v72q0 6 5 9t7 6l43 -10q5 -1 10.5 0t7.5 4zM208 189v15l-41 11l-102 16l1 -19zM208 136v32l-137 20v-106h127zM565 607q0 -7 -2.5 -10t-5.5 -8
q-2 0 -7 1.5t-8 1.5q-5 16 0 33h12q2 -3 6.5 -7.5t4.5 -10.5zM505 604l-4 -16h-18l-8 8v15l19 4zM531 419q-16 -5 -33 0v18l8 8h11l14 -11v-15zM505 357q0 -2 -3 -8t-5 -11l-15 8l4 19h11zM162 612q0 -6 -2 -5t-2 -2h-12l-11 32l19 5q2 0 4 -1q4 -2 4 -6v-23zM188 559h-15
l-11 10q0 3 2.5 8t4.5 8h12l7 -11v-15zM128 555h-23q0 3 -1.5 7t-1.5 12q5 0 13 1t13 -1v-19zM228 387q0 -8 -2 -12t-2 -6h-11l-11 10q0 8 2.5 14t4.5 8q5 0 11 -4.5t8 -9.5zM175 316l-2 -2q-2 -2 -2 -5h-12q-5 3 -6 9t-1 11l-23 10q0 2 -1 8t1 11h17q6 0 11 -5t9.5 -11.5
t6.5 -14t2 -11.5zM145 150l-4 -11q-5 -3 -13 -2.5t-16 2.5l-3 26h15zM168 106l-14 -8q-3 0 -8 4.5t-8 6.5q0 11 2 15.5t2 6.5h15l11 -10v-15z" />
    <glyph glyph-name="I" unicode="I" horiz-adv-x="256" 
d="M238 29l-65 -27h-109v311l-13 80v278l159 27l28 -121v-548zM187 452v216h-22l-88 -27v-71q0 -6 2 -12.5t3 -11.5q25 -20 52 -45.5t53 -48.5zM198 368q-2 6 -2 12.5v13t-1.5 13t-6.5 12.5q-11 12 -25.5 26.5t-29.5 28.5t-29 26.5t-24 20.5q-4 3 -3 -2t2.5 -11t2 -10.5
t-3.5 0.5zM194 331l-120 133l4 -35l113 -120v-14q3 2 3 11.5v24.5zM194 270l-112 118l13 -223zM190 199v19l-102 -94l-3 -29zM197 63l-11 105l-85 -105h96zM137 604q0 -3 -1.5 -8t-1.5 -7h-19l-11 7v11q3 3 7 5.5t4 5.5q2 0 7.5 -1.5t7.5 -1.5zM157 537q0 -5 -6.5 -12.5
t-14.5 -9.5h-11l-1 2q-1 1 -1.5 2.5t-1.5 3.5q0 8 2 12t2 6q2 0 7 2t18 2zM144 279h-23l-4 18q0 7 8 10q8 1 12 -1t7 -2v-25z" />
    <glyph glyph-name="J" unicode="J" horiz-adv-x="421" 
d="M410 268l-23 -100v-26q0 -17 -11.5 -38t-29.5 -40.5t-40 -35.5t-43 -23q-6 -2 -16.5 -5t-20.5 -6t-19 -5t-12 -2h-121l-43 -6l3 5q-3 7 -3 14t-1 14l14 68v70l7 21l91 -19q21 0 34.5 11.5t21.5 27.5t12.5 34t6.5 32l-3 403q0 17 13.5 24.5t24.5 7.5l105 10q7 0 15 -7.5
t14 -17t10 -18.5t4 -12l7 -67zM354 578v68l-11 25h-55l-46 -22v-179zM356 489v20l-113 -100l-1 -21zM355 531l-1 15l-114 -103l2 -12zM360 222v248q-12 -10 -34.5 -29t-44 -41t-35.5 -43t-9 -35l7 -83q-3 -8 -6 -15t-8 -15l82 -109l8 8zM293 86l-66 88l-15 -14l68 -87z
M267 55l-72 89q0 -8 -8 -8l41 -99zM203 33l-43 94l-86 10l-17 -104h146zM294 619l-4 -22h-15l-11 11v15l22 4zM300 546q0 -5 -6.5 -11t-14.5 -11l-9 7v15q3 2 9 4.5t14 2.5zM337 345l-11 -11q-8 0 -12 1.5t-6 1.5v23l29 -4v-11zM300 326q-2 -9 -9.5 -15t-15.5 -7l-18 4
q2 8 11 15.5t14 6.5zM313 241q-2 0 -6 -2t-10 -2q-5 0 -9.5 3t-10.5 8v15q3 0 6 2t9 2t12.5 -5t8.5 -10v-11zM110 84h-15l-11 7q-2 5 -2.5 11t6.5 11h18q3 -5 4.5 -13t-0.5 -16zM133 55q0 -5 -4 -8.5t-9 -6t-9.5 -4.5t-5.5 -2q-3 2 -5.5 7.5t-2.5 10.5l11 15h25v-12z" />
    <glyph glyph-name="K" unicode="K" horiz-adv-x="625" 
d="M670 672l-243 -320v-9q13 -14 25.5 -32.5t22.5 -37.5q13 -24 30 -58.5t32 -66t25.5 -55.5t10.5 -27v-54l-205 -27l-90 219l-61 -59l9 -123l-51 -16h-118v130q0 5 -6.5 13t-13.5 13v12l16 13v186l-10 63v241l160 20q2 -5 7 -12t9 -15q1 -5 -0.5 -12t-1.5 -12l12 -212
l181 216q-5 11 1 27l259 13v-18zM576 664q-8 -3 -15.5 -5t-12.5 -1l-56 -4q-19 -2 -37.5 -7.5t-31.5 -20.5l42 -98zM437 488v32l-40 74v-22zM410 468q0 5 -4.5 19t-11.5 28.5t-16 25t-18 9.5l35 -112q8 8 11.5 16.5t3.5 13.5zM197 539l-12 42q-4 -4 -23 -4l-9 9v9q9 9 17 9
l17 -3v60l-120 -11v-68l11 -31q2 2 4 2.5t8 0.5q5 0 13 -1.5t11 -15.5l-10 -9h-30v-39v-25zM384 265v9h-5v-9h5zM530 47l-115 214l-65 -137l24 -77h156zM194 491q0 1 -0.5 4t-0.5 7v10l-121 -76l3 -26zM377 326l-27 27v9q5 13 15.5 27t7.5 26l-38 99l-140 -156q-9 9 -8 16
l9 38v15q-18 -9 -38.5 -22t-38 -29t-29 -34t-10.5 -39q0 -13 7.5 -20.5t18 -12t21.5 -6.5t18 -4q19 -5 41 -10.5t36 -11.5l63 56q7 -7 10 -15.5t4.5 -17t1.5 -15t2 -10.5l12 -45zM404 283l-13 20l-63 -132l7 -24zM196 449l-1 20l-119 -85l2 -20zM197 223l-120 24
q4 -12 17.5 -19.5t30 -12.5t33 -8t28.5 -6q0 5 4 11t7 11zM188 131v43l-107 23l3 -25zM195 55v52l-113 34v-86h113zM523 606q-2 -5 -7.5 -12.5t-13.5 -12.5h-11l-10 20q-11 -2 -16.5 0t-10.5 4v12l10 11h15q2 -3 3.5 -7.5t3.5 -9.5q2 0 4 3.5t9 3.5h17zM133 599l-7 -8h-12
q-2 2 -4.5 6t-2.5 11q0 6 2.5 10t4.5 9h15q4 -4 4 -28zM276 377q0 -12 -1.5 -17.5t-1.5 -8.5h-15l-11 11q2 5 5.5 11t8.5 8q3 0 8 -2t7 -2zM436 197v-11.5t-4 -14.5q-2 0 -7 -1.5t-7 -1.5q-8 6 -8 22l8 7h18zM476 85l-11 -7h-14l-4 15l7 11l22 -4v-15zM420 105q-5 -2 -18 -2
t-18 2v15l7 8h18l11 -8v-15zM233 304q0 -5 -1.5 -9t-1.5 -7l-29 -7l-8 8q0 2 2 7.5t2 7.5q5 0 12.5 3t23.5 -3zM177 324q-8 -11 -19.5 -18t-19.5 -8l-8 7v19h47z" />
    <glyph glyph-name="L" unicode="L" horiz-adv-x="464" 
d="M485 111l-10 -84l3 -18l-61 -17h-44l-100 10h-221v615l-7 46q0 5 3 12.5t8 12.5h148l68 -24l-14 -91l-13 -385l179 -23zM208 476v182q-4 -4 -6 -1q-2 1 -2 2l-30 6h-101v-326q76 66 131 107q4 8 6 16.5t2 13.5zM412 36v95h-93v-95h93zM201 361q-1 1 -1 5.5t1 9.5t1 9
t-1 4l-129 -129l-2 -20zM197 410q-1 0 0 3t1 6t-1 4.5t-5 -1.5q-9 -7 -24 -19.5t-31.5 -26.5t-32 -28t-25.5 -25q-9 -11 -5.5 -15t2.5 -6zM294 39v75q0 15 -0.5 18.5t-2.5 3t-5 -1.5t-9 5l-1 -93q1 -4 3 -4t4.5 0.5t5 0.5t5.5 -4zM255 35l1 105h-17v-97q-1 -6 4.5 -4.5
t11.5 -3.5zM218 45v79q0 6 -4.5 16t-12.5 18l-21 -3q-6 0 -12 6v12l9 12l19 -3v143l-126 -124v-156h148zM158 614q-2 -5 -7 -12.5t-10 -12.5h-16v17q0 7 5 14t10 12q5 -2 10.5 -7.5t7.5 -10.5zM165 514q0 -5 -5 -10t-10 -5l-18 4l4 19q10 0 17 -2.5t12 -5.5zM112 526l-5 -4
l-25 7v18l7 8h12q2 -2 4 -7t7 -10v-12zM372 101q0 -5 -3.5 -11t-8.5 -8q-8 0 -11.5 1.5t-5.5 1.5q-3 5 -3 11.5t3 11.5h21zM382 54q0 -5 -5 -9t-10 -6h-12q0 3 -1.5 9t-1.5 14h19zM152 178q0 -3 -2.5 -8.5t-5.5 -10.5q-12 0 -17.5 1.5t-7.5 1.5l3 23h19zM128 101
q0 -5 -4.5 -12.5t-9.5 -9.5l-15 4v15l7 7z" />
    <glyph glyph-name="M" unicode="M" horiz-adv-x="839" 
d="M828 92l-10 -101l-25 -7h-161l-14 251l5 76q-11 -22 -14 -36.5t-4.5 -28t-3.5 -30t-11 -41.5q-3 -10 -10 -25t-15.5 -32.5t-18 -36.5t-16.5 -37q-7 -5 -16.5 -12.5t-19.5 -17.5q-8 0 -13 1.5t-6 1.5l-100 -20q-17 -3 -26 5t-14 21t-7 28t-5 24q-14 56 -31.5 110
t-35.5 112l-18 -98v-100l-27 -102h-162q-9 11 -10 21.5t-1 20.5l17 123l20 254l34 261h44l117 17h59q6 0 16 -3.5t19 -10t16.5 -14.5t9.5 -17q11 -54 30 -104.5t40 -107.5q17 21 23.5 43t11.5 45.5t12.5 48.5t26.5 52q3 4 5 13t5.5 18t8.5 16t14 7h59l50 10l131 -10l21 -284
v-304zM771 581v28q0 7 -2 16t-6.5 17t-13 13t-20.5 5h-50v-146zM653 507l-1 148l-16 -3l3 -145q1 -4 2.5 -3t3.5 3t4 3t4 -3zM771 557l-125 -84l4 -25l123 84q0 5 -2.5 12.5t0.5 12.5zM776 314v196l-128 -94v-102h128zM612 445v207l-25 2q-8 0 -17.5 -15.5t-19 -38.5
t-18.5 -50.5t-16.5 -51.5t-12 -40.5t-5.5 -18.5l65 -142zM778 262l-4 26h-129l4 -26h129zM771 205v30h-126q0 -27 4 -30h122zM441 381l-8 16q0 -5 3 -10.5t5 -5.5zM772 50v133l-84 -9q-8 0 -19.5 1.5t-19.5 2.5l-3 -5v-123h126zM548 256l-65 138l-8 -20l67 -134q5 5 5.5 8
t0.5 8zM368 462l-13 54v10l-58 141l-169 -20l-23 -202l99 -141v28l27 172l17 -3l25 -144zM381 412l-9 9l-92 -98l6 -16zM531 216l-72 114l-17 -56h-9q-10 4 -14.5 10.5t-6 14t-2 15.5t-2.5 15l-14 55h-12l-43 -52l54 29l10 -4l1 -8l-106 -106l61 -178h108zM399 364l-60 -32
l-45 -49l1 -14zM201 262l-102 135q-4 -10 4.5 -25.5t22 -33t28.5 -34.5t25 -30q4 -5 10.5 -9t11.5 -3zM194 191v32l-102 111q0 -8 -0.5 -16t-0.5 -16zM188 156l-102 111l-14 -209h95zM721 623q0 -12 -1.5 -17.5t-1.5 -7.5l-23 -4q0 3 -2 5.5t-2 9.5q0 6 3 9t8 7q8 2 12 0
t7 -2zM741 433q0 -8 -2.5 -14t-4.5 -8h-15q-2 2 -6.5 8t-4.5 11l11 7q10 0 14.5 -2t7.5 -2zM594 538l-7 -11l-22 7v23l29 -4v-15zM704 351l-14 -14q-5 0 -11 3t-11 8q0 5 5 11t10 8l21 -4v-12zM561 461q-5 -2 -13 -1t-16 4q-2 5 -4 11.5t1 11.5l21 7q11 -7 11 -21v-12z
M754 143q0 -8 -1.5 -12t-1.5 -7h-15l-8 8q0 5 3.5 10.5t8.5 8.5zM711 95q0 -3 -3.5 -5.5t-6.5 -2.5h-19v19l7 8l22 -4v-15zM201 584h-19l-11 7v12l8 7q10 0 14.5 -1.5t7.5 -1.5q5 -12 0 -23zM191 478l-11 -8l-11 4q-7 12 0 29h22v-25zM158 512q0 -6 -5 -12.5t-10 -8.5h-15
q0 2 -1.5 4t-1.5 9q0 5 4.5 11.5t9.5 8.5h15l3 -4.5t1 -7.5zM468 191l-29 -7l-8 17l4 9h22l11 -7v-12zM391 202q-2 -5 -7.5 -12t-10.5 -10q-5 3 -9.5 12t-5.5 14l29 4q0 -2 1 -3q2 -4 3 -5zM111 140q1 -5 1 -13t-5 -16q-8 0 -14 2.5t-8 4.5v12l14 10h12z" />
    <glyph glyph-name="N" unicode="N" horiz-adv-x="693" 
d="M678 137l-23 -141q-3 -4 -9.5 -6t-13.5 -2t-13 2t-8 5l-21 -3h-161l-191 373v-295l-10 -48l-51 -14l-108 -16l-16 61v650l29 2l135 -20l78 3q-1 -3 -0.5 -7.5t1.5 -9.5q19 -23 39 -47t32 -47q25 -49 46 -99t44 -103q2 2 3.5 6.5t1.5 15.5l3 30q0 8 -0.5 21t-12.5 25v11
q2 3 7 5.5t10 1.5l13 220h25l63 -26h83q6 0 10.5 -4.5t8 -10t5 -10.5t1.5 -6v-517zM618 495v160h-35l-82 20v-79zM616 445v29l-117 87l-2 -20zM615 396l-1 19l-118 92l-1 -28zM608 357l-119 91v-65l13 -115q0 -7 0.5 -12t-1 -11t-5 -13t-10.5 -17h-9l-37 63l-75 -105
l61 -116h172zM392 386l-44 105q-3 0 -8 -3t-13 -3l-19 25l24 13l-81 132l-176 23v-179l103 -50v55q0 6 5 12.5t13 11.5l110 -233zM415 346l-8 16l-90 -96q1 -2 2 -4.5t2 -5.5l2 -8zM435 306l-7 16l-89 -94l10 -16zM185 402l-3 25l-88 31h-15v-19l84 -31zM184 352v26l-20 5
l-86 23v-23zM186 70v258l-107 27v-285h107zM578 292l-11 -7h-14q-8 6 -8 22q2 3 7.5 6t10.5 5l15 -11v-15zM218 609q-5 -2 -16.5 -2t-16.5 2v18l11 8q13 0 22 -11v-15zM152 599l-8 -7h-11q-5 2 -10 9t-5 12l4 15h11q6 0 11 -6.5t8 -11.5v-11zM571 179l-7 -7h-11q-5 5 -8 11
t-3 11q2 0 6 1t4 3q5 -2 12 -8t7 -11zM315 393l-18 -21q-5 0 -11 4.5t-11 9.5q1 5 5 12t13 10l22 -4v-11zM141 505q-2 0 -6.5 -0.5t-6.5 -5.5q-5 -1 -11.5 4t-11.5 10q0 2 2.5 7.5t4.5 10.5h15l14 -10v-16zM535 114l-4 -15h-18q-8 6 -8 22q9 1 18 -1t12 -6zM482 134
q-3 -5 -8 -12.5t-10 -9.5q-3 -1 -8.5 2.5t-10.5 8.5q-1 3 2.5 8.5t8.5 10.5h15zM148 236l-8 -8q-5 0 -12 5t-10 10v11q3 2 9 4.5t14 2.5l7 -11v-14zM121 174q0 -15 -7 -25l-21 -4q-3 2 -4 3.5t-1 8.5q0 8 4.5 14t6.5 11z" />
    <glyph glyph-name="O" unicode="O" horiz-adv-x="790" 
d="M795 378l-10 -56v-21q0 -5 -6.5 -15t-9.5 -18q-8 -17 -15.5 -39.5t-19 -45.5t-27 -45t-39.5 -38q-4 -2 -8 -10.5t-10 -15.5q-15 -17 -31.5 -32t-30.5 -27q-12 -11 -28.5 -18t-36 -13t-40 -11.5t-40.5 -12.5l-87 30h-26q-9 0 -29.5 7.5t-43 16.5t-40.5 17t-21 10
q-10 7 -20.5 21.5t-18.5 24.5q-10 14 -23.5 29t-27.5 31q-5 6 -14 30.5t-18 53t-16 54t-7 34.5v120l71 190l177 117h47l74 14l134 -7q10 -5 22.5 -15t24.5 -17q10 -6 26 -10.5t27 -12.5q15 -11 26.5 -27t22.5 -32q2 -3 10 -16.5t18.5 -33t21.5 -42t20.5 -44t15.5 -39.5
t6 -28v-58zM688 541l-21 28l-122 -111q2 -2 5 -8.5t3 -8.5l126 112zM649 584l-11 16l-94 -90l4 -22zM625 632q-17 17 -36.5 38t-31.5 32q-11 4 -25 8t-27 7t-23 4.5t-13 1.5h-89l-65 -10q5 -20 12 -41t16 -38q3 -5 8 -9.5t11 -4.5l46 4q-16 16 -1 29h31q4 0 7 -3q1 -1 0 -2
q-3 -9 -14 -17.5t-19 -8.5q11 0 27 -7.5t32.5 -19.5t30.5 -27.5t21 -30.5zM325 608l-38 96l-25 -12l50 -101q0 2 5.5 8.5t7.5 8.5zM708 312l-6 157l-11 64q-18 -12 -38 -28.5t-38 -34t-32 -34t-20 -27.5q-1 -2 0.5 -3.5t1.5 -7.5v-79l-43 -111q7 -4 10 -10t4.5 -12.5
t2.5 -12t3 -8.5l3 -37v-20l11 -34q28 7 53 34.5t44.5 63.5t33.5 74t21 66zM288 568l-50 109l-18 -18l49 -116q8 5 11 11t8 14zM542 343l-27 139v7l-81 104h-52q-6 0 -15.5 -3t-14.5 -7l-54 -161v-94l47 -144l70 -21q27 -1 47.5 17.5t36.5 45.5t26.5 59t16.5 58zM255 518
l-54 122h-12q-38 -27 -54.5 -59t-18.5 -61q-5 2 -10 -2t-7 -9q-3 -9 -6.5 -21t-6.5 -23.5t-5 -21t-2 -12.5v-57l156 90q-1 9 4 26t16 28zM518 50q11 3 13.5 8.5t0.5 14t-6.5 19.5t-7.5 23l-14 62q-5 -5 -11 -12.5t-8 -12.5zM232 424l-3 17l-145 -101l4 -13zM491 38l-33 101
h-74l-75 24l-81 -95l128 -46h74zM239 253l-37 102v9q4 4 12 10t6 13l-132 -88l55 -132zM263 219l-14 21l3 -6l-92 -90l12 -15zM292 182l-12 11l-88 -88l11 -12zM518 693q0 -8 -2.5 -14t-4.5 -9h-15l-8 11q0 3 3 6.5t5 5.5h22zM431 677l-15 -4l-18 15v11l8 8q10 0 14.5 -2
t7.5 -2q0 -2 1.5 -7.5t1.5 -18.5zM658 371q-2 -2 -4.5 -5t-2.5 -6l-22 7q0 8 1.5 12.5t1.5 6.5h26v-15zM618 295q-6 -8 -19 -8l-7 8l4 18h18zM658 243q0 -2 -2.5 -8t-4.5 -11h-15l-7 7v15zM181 507h-22l-7 29l11 7l18 -4q0 -10 -1 -18.5t1 -13.5zM145 441q-5 -3 -16.5 -2.5
t-16.5 2.5q0 8 2 12t2 7l29 -4v-15zM208 304q-2 -2 -8 -4.5t-14 -2.5l-8 15l11 8h16q0 -3 1.5 -8t1.5 -8zM385 120q0 -5 -5 -11t-10 -9h-11l-7 8l4 15zM165 263q-3 -12 -10 -18.5t-19 -11.5q-2 3 -4.5 10t-2.5 20q8 -2 18 0t18 0z" />
    <glyph glyph-name="P" unicode="P" horiz-adv-x="540" 
d="M562 463q0 -3 -2.5 -15t-7 -28t-10.5 -33.5t-12 -30.5q-2 -5 -8 -10t-10 -10q-3 -5 -4.5 -10t-4.5 -10q-16 -12 -37.5 -26.5t-42 -27t-35.5 -21.5t-18 -9h-23l-90 -23h-27v-179l-26 -48l-148 17l-11 41v654l360 20v-10q6 -4 16.5 -4.5t18.5 -2.5q14 -2 34.5 -18.5t40 -39
t33.5 -46t14 -39.5v-91zM472 581l-2 5l-92 -68l5 -11zM462 607l-19 15l-85 -75l5 -19zM425 640l-91 38h-104l-156 -14v-145l117 20v35q1 6 13.5 8.5t19.5 2.5l44 2l76 -19zM502 460v60l-11 41q-28 -15 -59 -36.5t-54 -40.5t-34 -43.5t-16.5 -52.5t-9.5 -57.5t-14 -57.5
l22 12q3 0 10.5 1.5t16.5 4.5t18 6.5t16 6.5q9 4 20 9.5t21.5 11.5t20 13t14.5 14t12 21t13 30.5t10 32t4 24.5zM335 493q0 5 -3.5 15.5t-10 21.5t-15.5 19.5t-20 8.5h-31v-94l-13 -45l18 -4q42 5 58.5 29t16.5 49zM194 499v16l-119 -20l1 -26zM310 402l-19 -7l-36 -113
q22 0 25 -4zM188 466v3.5t1 5.5q1 4 2 7l-116 -35l8 -9zM261 388h-18l-36 -13q-5 5 -8.5 10t-3.5 11v42h-22l-98 -27v-129l14 3q8 -14 17.5 -22t20 -13t21 -9t20.5 -9q-4 5 -2.5 10.5t4.5 10.5t6.5 8.5t4.5 5.5q14 2 31 10t25 22q11 18 17.5 44.5t6.5 44.5zM168 185v12
l-96 58v-19zM161 40v124l-85 44v-168h85zM445 469q-3 -2 -6.5 -5t-5.5 -6q-1 6 -10 16t-14 12q-1 4 4 12t10 10h11q2 -2 6.5 -5t4.5 -9v-25zM242 657l-4 -18h-19q-2 2 -4.5 5t-2.5 10v17q8 0 16.5 -4.5t13.5 -9.5zM405 390l-2 -4q-4 -4 -8 -4h-22q-3 2 -4.5 7.5t-3.5 10.5
l11 8l25 -7q0 -7 4 -11zM131 615q-8 0 -14 2.5t-8 4.5q-3 8 -1.5 16t1.5 16q10 0 15 -1.5t7 -1.5q2 -5 2 -18t-2 -18zM128 585q0 -5 1 -13.5t-1 -13.5h-36l-4 16q5 3 12 7t14 4h14zM162 373l-4 -31q-8 2 -14 12.5t-16 18.5l8 22h11q5 -2 10 -9.5t5 -12.5zM131 292
q-2 0 -6.5 -2t-15.5 -2l-7 8l4 22h18l7 -8v-18zM132 107q0 -10 -2 -14.5t-2 -7.5h-15l-18 21q-1 3 2.5 8t8.5 8h11q3 -3 7.5 -6.5t7.5 -8.5z" />
    <glyph glyph-name="Q" unicode="Q" horiz-adv-x="736" 
d="M740 313q0 -14 -11 -44.5t-25 -62.5t-26.5 -58t-16.5 -32q-2 -5 -7.5 -10t-10.5 -10q5 -12 9 -26.5t6 -25.5q1 -9 3 -20t6 -21t11.5 -19t21.5 -14l-134 -73q-4 5 -10 5.5t-13 -1t-13 -3t-9 -1.5l-93 91q-5 -6 -23.5 -13t-41.5 -7q-17 0 -31.5 5t-27.5 11.5t-23.5 12
t-19.5 7.5q-17 3 -34.5 12t-34.5 22.5t-35 30t-36 33.5q-10 10 -18 28.5t-18 38.5q-7 15 -17.5 34.5t-20 40t-16 39.5t-5.5 32l14 82q19 46 27.5 74.5t14.5 49t14.5 38t27.5 42.5q15 19 37 32.5t40 33.5q8 4 25.5 11.5t38.5 15t42 13t38 5.5h66l74 -20h32q33 0 64 -24
t57.5 -57.5t46 -68t30.5 -55.5q5 -8 5 -30l20 -80v-64zM666 429q-8 30 -22.5 66.5t-36.5 70t-51.5 59t-68.5 33.5l-41 -85q17 -7 33 -20.5t29 -29.5t21 -33t9 -30q0 -4 0.5 -9.5t1.5 -10.5t2 -8t3 -3h121zM452 646v22l-45 -89q2 0 5.5 -2.5t5.5 -4.5zM413 662l-8 16
l-52 -106q5 2 13 4.5t13 2.5zM676 382q0 8 -2 12.5t-2 6.5l-17 -9q-11 11 -21 12.5t-21 0.5l-59 -11v-21q1 3 3.5 4.5t4.5 4.5h114zM666 350l-78 5l-28 -9q5 0 8.5 -2t9.5 -2zM366 675h-51q-23 0 -52 -13.5t-57 -35t-52.5 -48t-37.5 -52.5l153 -21q10 13 24 27t25 20
q10 28 24.5 61.5t23.5 61.5zM526 323v61q0 3 -4.5 17.5t-11 34t-13.5 41t-12 37.5q-26 11 -51 20.5t-51 16.5q1 -8 -3 -14t-10.5 -11l-13 -10t-9.5 -9q-5 -19 -12 -40t-13 -41.5t-11.5 -39t-7.5 -32.5l-3 -39l20 -102v-30q5 -3 13 -7t13 -3l-20 46l85 43q13 -15 20.5 -30.5
t15.5 -25.5q2 -1 4 -2.5t9 -1.5q9 0 20 17t21.5 38t17.5 40.5t7 25.5zM676 318q-17 2 -28.5 4t-19.5 0l-81 -11l-37 -109l21 6q9 -5 12 -11t3 -10l-15 -12h-16l-9 9t-9 4l-54 -136q10 0 10 -8l-13 -17l18 -25q13 11 30 22.5t33 23.5t27.5 24t14.5 24q32 19 50 47.5t29 59
t18 61t16 54.5zM253 481l-146 17l-41 -138v-45l160 57zM583 56l-5 6l-91 -86zM613 -14l-18 32l-92 -65q2 0 7.5 -2.5t7.5 -2.5zM460 167l-6 5l-58 -119l16 -8zM423 177l-24 48q-4 -2 -15.5 -8t-17.5 -13l24 -46q1 -5 -6 -16h-42q-9 0 -17 4q-1 0 -5 -2l-3 -3l-37 -99
q2 0 4.5 -3t2.5 -5h75zM221 289v62l-151 -71l8 -8l123 50l9 -9v-9l-22 -22l-14 6q-12 -8 -26.5 -14t-27 -12t-21.5 -14.5t-9 -22.5zM286 140v27l-68 95l-112 -65q9 -21 26.5 -45t39 -45.5t44.5 -39t43 -25.5zM560 566q-5 -2 -17 5t-13 19l4 15l26 -4v-35zM599 479
q-2 0 -7 -2t-13 -2q-4 6 -4 15.5t4 17.5h16q4 -3 4 -29zM546 521q0 -2 -3 -8t-8 -8q-5 0 -9 5t-6 10q2 3 8 4.5t11 3.5q0 -7 7 -7zM303 617q0 -8 -2 -12t-2 -6l-22 -4l-7 8v11l11 14q5 0 12.5 -3t9.5 -8zM609 264q0 -8 -1.5 -12t-1.5 -6l-15 -8l-11 11v12l11 7zM213 572
q-5 -2 -11 -3.5t-11 -6.5l-14 11v18q2 0 7 2t8 2l21 -11v-12zM576 160l-4 -18h-15l-7 8v11l7 7h12zM516 96h-33q0 2 -1.5 6.5t-1.5 14.5q2 3 6 5.5t12 2.5q12 0 18 -11v-18zM156 416l-8 -7h-11l-11 21q3 3 8.5 4.5t5.5 3.5l16 -7v-15zM199 169l-7 -7h-18l-1 2q-1 1 -1.5 2.5
t-1.5 3.5q2 5 4 11t7 11h11l7 -8v-15zM230 121q0 -5 -5 -11t-10 -8h-15q0 3 -1.5 8t-1.5 18l21 4z" />
    <glyph glyph-name="R" unicode="R" horiz-adv-x="595" 
d="M598 490q0 -46 -29.5 -96t-90.5 -88l100 -303q-8 -5 -16.5 -10t-15.5 -5h-131l-36 20h-13q-22 25 -30.5 58t-14 67.5t-13.5 66t-29 52.5h-61v-192q0 -11 -5.5 -22t-13 -20t-14 -15.5t-8.5 -7.5l-51 9h-87l13 136l-10 40l10 50l-10 431q5 2 12 9t15 13q9 3 22 6.5t26 6
t23.5 4.5t13.5 2h199q3 0 13.5 -2.5t25 -6t29.5 -7.5t26 -7l10 -4t10 -3q27 -2 51 -21t42 -46.5t28 -58.5t10 -56zM415 657l-19 4l-60 -95l8 -13zM455 633q-2 2 -4.5 4t-4.5 4q-3 3 -6 5l-73 -110q5 -5 7 -6t1 -6q-5 -5 -7 -11t-2 -8zM528 488l-3 19l-41 94h-8l-94 -132
l122 -51q15 17 18.5 36.5t5.5 33.5zM365 667l-88 15h-94l-55 -15l81 -80l102 -9zM338 480q0 7 -2 21.5t-6 22.5q0 1 -4.5 6.5t-10.5 11.5t-14 11t-15 5h-18v-65l21 -61q20 6 30 10t14.5 8.5t4.5 11.5v18zM488 400l-119 48q-5 -8 -8 -15t-5 -12l-57 -17l-10 -49q3 2 6.5 4.5
t9.5 2.5t12.5 -4t10.5 -9v-12q-5 -5 -10.5 -5.5t-10.5 -3.5l-21 17l-14 -63h28q3 0 12 4t21 9.5t24.5 11t22.5 9.5q7 16 19.5 27t28 20t31.5 17.5t29 19.5zM198 560l-115 108q0 -2 -4 -3t-6 -1v-205l124 17v34q-3 9 -4 19q-1 8 -0.5 16.5t5.5 14.5zM398 279q0 2 -2 7.5
t-2 8.5l-82 -39l8 -13zM425 246q-3 5 -6.5 10.5t-8.5 5.5l-78 -36v-11zM198 446q-2 1 -1.5 3t1.5 3.5t1 2.5t-3 1q-9 0 -24 -3t-31.5 -6.5t-33 -7.5t-27.5 -6q-6 -1 -2.5 -9.5t1.5 -13.5zM543 19l-8 16l-5 -2l8 -14h5zM515 45l-84 180l-92 -28l33 -138h38l73 -14h32z
M204 406l-6 19l-120 -40l-1 -17zM268 394l-18 4l-27 -16l-26 3l-121 -34v-46h24q6 0 9.5 -3.5l5.5 -5.5v-9q-5 -5 -11 -8.5t-12 -3.5t-10 2t-7 4v-48l76 -55v76q0 3 3 8t7.5 10t10.5 9t12 4h67zM152 153l-75 48l1 -16l68 -48zM155 45v56l-79 47v-103h79zM482 516l-8 -14
q-7 1 -16.5 4t-12.5 14l4 18q13 0 18 -1.5t7 -1.5zM318 636l-2 -4q-2 -4 -8 -4h-19q-2 5 -3 13t7 17q9 1 14 -6.5t11 -15.5zM481 466q-4 -5 -11.5 -8t-11.5 -3l-20 7v12q5 5 9.5 8t10.5 3q7 0 12.5 -2.5t10.5 -5.5v-11zM248 629q-5 -2 -18 -2t-18 2v15q2 2 6 5t4 5
q14 0 26 -7v-18zM142 568l-5 -16q-8 2 -16 6t-13 12q2 6 6 12.5t9 8.5h11q3 -5 5.5 -12t2.5 -11zM148 503l-8 -11l-38 10v23h24q7 0 10.5 -2.5t8.5 -5.5q0 -2 1.5 -7t1.5 -7zM435 157q-2 -5 -6 -10.5t-9 -7.5h-21q0 2 -2 6t-2 12q2 5 8 8t12 3q14 0 20 -11zM204 351
q0 -8 -6.5 -15t-13.5 -11l-22 4q2 6 6 13.5t12 12.5q12 0 17 -2t7 -2zM422 84q-3 -5 -8 -11t-10 -8q-13 0 -18 2t-7 2l3 22h25z" />
    <glyph glyph-name="S" unicode="S" horiz-adv-x="565" 
d="M568 156q0 -5 -7 -17t-12 -23q-1 -5 1 -10t0 -10q-11 -24 -30.5 -44t-44 -35t-51.5 -24t-51 -11l-153 3q-23 5 -51.5 11t-54 16t-45.5 25.5t-27 39.5q8 15 14.5 32.5t10.5 34.5q1 5 5 16t10 22t14 18t18 5l63 -20l123 -17q3 -1 12.5 1t19.5 6.5t18 11.5t8 18q0 21 -25 40
t-56 34t-59.5 25t-34.5 12q-11 4 -28 12t-34 19t-31.5 25t-20.5 31q-5 12 -9 29t-7.5 32.5t-5.5 28t-2 15.5q0 17 10 38.5t24.5 42t29 38t23.5 26.5q13 13 30 21t36 14t38 9.5t37 7.5l161 7q18 -7 42.5 -13t47.5 -12q8 -7 17 -15.5t17 -14.5l-47 -136h-134l-62 -29
q2 -10 4.5 -18t6.5 -20q19 -14 45 -24t50 -23q20 -11 39.5 -31.5t36.5 -39.5q5 -1 11.5 -2t11.5 -4q3 -5 11 -18t16.5 -29t14.5 -31.5t6 -24.5v-71zM492 643q-3 5 -4.5 10t-3.5 7q-10 6 -24.5 10.5t-19.5 4.5h-145l37 -87h114l28 -6zM312 583l-58 89q-9 -5 -9 -12l48 -88
q5 2 10.5 5.5t8.5 5.5zM268 559l-64 96q-5 -2 -10.5 -5t-8.5 -2q10 -28 35 -54t48 -35zM495 266q-4 18 -18.5 38t-33 37.5t-38 30.5t-32.5 16l-78 -82l91 -54zM342 392l-4 13l-79 -79l22 -9zM283 449l-28 58v10l-108 101q-30 -34 -49 -64t-16 -58l4 -27l131 26q8 0 15 0.5
t10 -1.5l-147 -50q4 -18 16.5 -35t28 -30.5t31.5 -23.5t29 -14zM312 413l-10 16l-79 -92l18 1zM504 205v43l-109 -20l10 -141l-6 -32q26 13 46 31.5t33 39t19.5 41t6.5 38.5zM382 46v87l-8 32l-22 -15q2 -2 6 -4.5t4 -9.5v-22l-23 -78zM335 113v28q-5 -2 -11 -4.5t-8 -3.5
q-4 -11 -9 -25t-9 -27.5t-6.5 -24t-2.5 -13.5v-11l29 3zM288 135h-21l-126 30q-10 5 -21 0t-19.5 -14.5t-13 -20.5t-2.5 -17l-10 -37q8 -5 16.5 -10t16.5 -7v15t3 8h15l12 -13q0 -5 -2 -10l-4 -10l136 -20zM451 647q0 -2 -1.5 -7t-1.5 -8q-16 -5 -32 0l-8 7q0 3 3 8t5 8h21z
M353 619l-14 -4q-2 2 -7 6t-7 9v14l11 7h17v-32zM442 319l-14 -7q-14 5 -25 0q-3 5 -3 13t2 13h12l24 -13zM158 546l-11 -11h-12q0 3 -1.5 8.5t-1.5 13.5q0 7 11 18h11q4 -5 4 -29zM251 435q-5 0 -11.5 3t-11.5 8l4 22h19q4 -4 0 -33zM378 311h-33q0 3 3 9t8 11h12zM481 162
h-28q-3 2 -4.5 7.5t-3.5 10.5q6 8 22 8l14 -11v-15zM164 404q0 -8 -1.5 -12t-1.5 -7h-18l-8 8q0 2 2.5 7.5t5.5 7.5q10 0 14.5 -2t6.5 -2zM194 95h-25l-14 11v11l8 8h18q5 -7 10 -7q0 -3 1.5 -7.5t1.5 -15.5z" />
    <glyph glyph-name="T" unicode="T" horiz-adv-x="580" 
d="M598 565q0 -8 -4.5 -23t-12.5 -30t-18.5 -26.5t-23.5 -11.5h-105l-27 -483l-196 10v499l-110 -9q-12 -2 -21.5 2.5t-17.5 11t-14.5 13.5t-13.5 10v131q0 5 4.5 16.5t9.5 21.5l95 -6h441l14 -48v-78zM550 542v61q1 6 -2 9l-5 5q-5 -2 -16 0.5t-16 11.5v9l18 13
q2 -3 7 -6.5t8 -3.5v19q-7 0 -17 2.5t-20.5 4.5t-21 1t-17.5 -8l20 -118h62zM464 553l-30 112h-122l-81 -122l10 -28v-97l120 53v64q9 10 14 9q9 -8 21 -13q5 5 10 7.5t12 2.5l35 -4q3 3 7 8t4 8zM284 657l-26 4l-71 -110q2 0 11 2.5t11 0.5zM230 662h-12q-4 0 -9 1
l-64 -115h17zM178 667l-96 1q-3 -8 -10.5 -17.5t-7.5 -15.5v-74l46 -14zM361 428l-1 16l-121 -49l-4 -21zM360 351v53l-130 -57v-102l127 -41v123l-11 -3q-5 1 -10.5 5.5t-7.5 9.5q2 8 7.5 13t10.5 5zM352 158l1 27l-116 35l-1 -17zM360 107l-6 17v5l-7 4q0 5 -5 5t-5 2
l-103 36v-17zM357 48l2 37l-131 49v-80l43 23h5t5 -2v-27l6 4q5 -1 11 -3t12 -1h47zM348 598l-9 -7l-18 11v18l8 7h15zM317 535l-45 -18l-4 5v11q5 10 15 14t15 4q6 0 9.5 -2t6.5 -2zM280 304q-12 0 -17.5 2t-7.5 2v15l7 8q8 0 12 -2t6 -2q2 -5 2.5 -11.5t-2.5 -11.5z" />
    <glyph glyph-name="U" unicode="U" horiz-adv-x="673" 
d="M672 357l-17 -91v-46q0 -2 -7 -16t-16 -33.5t-18 -40.5t-14 -37q-5 -15 -16 -27.5t-25 -21.5t-28 -16t-24 -11q-32 -14 -66 -24.5t-66 -20.5l-32 6h-46q-15 0 -38.5 9.5t-48 21.5t-45.5 24t-30 17q-10 17 -23.5 39.5l-25.5 42.5q-15 26 -19 54.5t-9 56.5l-6 64v374h35
l53 11l40 3q13 0 31 -2.5t31 -17.5q-2 -4 -7 -7l-10 -6v-75l10 -50v-40l-3 -130q7 -29 13 -52t13.5 -45t19 -44t28.5 -48q3 -5 8 -6t10 -4l34 7q10 0 22 -7q16 10 31 19t26 24q6 9 11 21t8 24t4.5 21.5t1.5 12.5v404l68 18h80l41 -11l7 -21v-40zM595 556v104q0 8 -5.5 13.5
t-13 9t-14 4.5t-9.5 1l-64 -14v-132h41zM598 527l-103 -9l-1 -18l59 12h17q3 0 14 0.5t12 -1.5t0.5 6t1.5 10zM595 385v110l-102 -17v-113h21zM595 360l-100 -22l4 -23l35 11l56 12zM175 671l-91 -13v-126zM178 590l-2 32l-59 -88q11 -5 14.5 -5.5t1.5 4.5zM575 223v82
l-86 -20l-24 -72l44 -148q6 3 13 10.5t12.5 15.5t9.5 15.5t6 12.5q4 12 8.5 29t8.5 32.5t6 27.5t2 15zM123 524l-8 8l-26 -32l6 -9zM175 534q0 2 -1.5 7t-3.5 7l-89 -110q5 -11 -1 -16.5t-4 -16.5zM488 53l-41 125q-27 -25 -53 -32t-56 -11l-52 10l-54 -119l113 -24l50 16
q4 -2 8.5 -2.5t8.5 -0.5zM202 246l-30 81l-1 138q-9 -8 -24.5 -20t-30.5 -28t-26.5 -34.5t-11.5 -39.5l4 -30v-13l60 -186zM262 160l-12 15l-58 -119q2 0 7.5 -4.5t7.5 -6.5zM229 189l-12 17l-58 -121l13 -10zM578 633l-8 -8h-14l-11 15l7 15h19q2 -3 4.5 -8.5t2.5 -13.5z
M558 573q-5 -5 -11 -8t-11 -3l-11 18l15 12q5 -3 11.5 -8.5t6.5 -10.5zM558 254l-7 -26l-36 21l7 19h19zM555 174q-10 -10 -10 -22q-5 -2 -13 -4t-13 1q0 1 -1 2t-3 5q0 3 3 8t8 10h29zM404 95q-12 0 -17.5 2t-7.5 2q0 8 1.5 12t1.5 7h19q0 -3 1.5 -9t1.5 -14zM141 359h-28
l-8 7v11l15 11l21 -14v-15zM141 301q0 -2 -2.5 -8t-7.5 -11h-18l-8 7v12l8 7q10 0 16.5 -2.5t11.5 -4.5zM318 59q-5 -5 -10.5 -6.5t-10.5 -4.5l-15 8l4 17h32v-14z" />
    <glyph glyph-name="V" unicode="V" horiz-adv-x="698" 
d="M715 680q0 -3 -5 -16t-12 -30t-14.5 -35t-11.5 -30q-3 -11 -5.5 -25.5t-5 -30.5t-6 -31t-8.5 -26q-32 -70 -51.5 -129.5t-34.5 -111.5t-28.5 -98t-32.5 -88q-9 -7 -24.5 -12t-33.5 -9.5t-37 -7.5t-35 -5l-94 -3q-6 2 -16.5 3t-20.5 4q-11 16 -16 31t-8.5 31.5t-7.5 36
t-13 45.5q-2 7 -9.5 15.5t-11.5 20.5q-5 14 -7 28t-6 26q-6 19 -13.5 44.5t-15.5 53.5t-17 57t-17 55q-11 37 -22.5 61.5t-21 42t-15.5 31.5t-6 29v30l21 33h201l116 -362l112 357q11 -2 19.5 9.5t3.5 19.5l32 -9h53l125 20v-25zM635 658h-65l-58 -10l-53 -159l132 33z
M582 476l6 22l-133 -30l-1 -18zM568 432q-2 2 -2 5q0 1 1 3t6.5 4.5t0.5 12.5q-31 -9 -66 -16t-68 -18q-1 -2 -5 -12t-2 -13l117 34h18zM561 411l-142 -43l-17 -66q2 1 3 2t3 1h3l69 -107zM208 616q-5 10 -12.5 15.5t-15.5 8.5t-15.5 3.5t-11.5 0.5h-88l28 -116zM258 416
l-15 52q-2 -5 -6.5 -8l-7.5 -5h-8l-6 5v9l9 9h11q3 0 4 -1l2 -2v-3l-27 110l-109 -92l44 -132zM469 171l-64 109l-6 -19l63 -124q2 8 6.5 16.5t0.5 17.5zM262 371l-9 15l-85 -51l5 -16zM272 336l-2 18l-95 -54l6 -22zM450 101l-67 141q-5 -9 -7 -19.5t-5.5 -19.5t-9.5 -15
t-19 -6q-4 0 -9 1t-11 11q-14 62 -45 121l-92 -65l61 -190l188 9q3 5 9.5 16t6.5 16zM545 618l-4 -29l-7 -7q-5 0 -11 6l-11 11q-1 5 4 13t10 10q8 0 12 -2t7 -2zM552 557l-15 -12h-14l-8 8v11l8 4q8 0 14.5 -3t14.5 -8zM531 343q-2 -3 -4.5 -6t-2.5 -5h-11l-15 11v11
q3 2 7 5t4 5q8 0 12 -1.5t7 -1.5q0 -2 1.5 -6t1.5 -12zM132 607q0 -2 -3 -7.5t-5 -7.5h-32q-5 11 0 23q2 0 6.5 1.5t9.5 1.5q13 0 24 -11zM178 483l-11 -11l-22 4v22h33v-15zM295 199l-15 -4q-5 2 -10 8t-5 12t3 9.5t5 3.5h18q4 -4 4 -29zM278 113q-2 -3 -3.5 -4t-7.5 -1
q-7 0 -13.5 5t-11.5 10q-1 2 2 7.5t5 10.5h19l10 -17v-11z" />
    <glyph glyph-name="W" unicode="W" horiz-adv-x="949" 
d="M948 625l-6 -52l-114 -483v-40q0 -10 -8.5 -17.5t-19.5 -13.5t-20.5 -11.5t-12.5 -12.5q-9 3 -21 2.5t-23 -4.5l-23 5h-121l-86 200q-9 -17 -14.5 -39.5t-10.5 -47.5t-10.5 -49.5t-14.5 -44.5q-13 -14 -25 -16.5t-25 -5.5l-128 14q-1 10 -4.5 17t-15.5 10q0 2 0.5 9
t9.5 15l-109 279l-24 -4l-4 15q2 5 7 8t10 9l-103 290l48 21l153 -13q5 1 15.5 -4t21 -14t17.5 -19.5t5 -20.5l49 -216q0 -1 1 -2t4 -1l39 277q4 13 14 23l38 -6l118 3l43 -7q0 -3 -2.5 -8t-7.5 -10l44 -138q4 2 9 1.5t7 -2.5v-12q-7 0 -16 -9l31 -115l65 235v58l44 -10
l104 14q14 3 26 -2t21 -14t15.5 -20.5t9.5 -20.5zM875 645h-119l-47 -183l125 30zM824 451l-101 -29q-5 -1 -10.5 -0.5t-10.5 3.5v-36q15 7 34.5 12t37.5 10.5t31.5 14.5t18.5 25zM560 535l-5 13l-165 -55v-18zM555 562v18l-27 67q0 7 3 10h-109l-33 -145zM633 389l-8 23
l-5 -2l8 -21h5zM562 504h-28q-10 0 -30 -5t-42 -13t-42.5 -16.5t-31.5 -14.5q-10 -5 -10.5 -7t2.5 -3.5t5.5 -3t-0.5 -5.5zM804 401l-115 -43l-14 -65l13 -10v-23l-69 -201l129 10zM658 230l-4 25l-12 -4l-60 -174q0 -5 3 -12.5l5 -12.5zM625 280l-57 180v15l-196 -71v-60
q0 -13 -7 -36t-22 -33h-12l-31 80l-78 -122l74 -177h102v54l54 203v31q0 6 3.5 11t8.5 10h12q8 -8 10 -14t2 -11l82 -235zM252 516l-31 122l-44 10h-54l-51 -17l98 -266zM275 454q-2 1 -4.5 3.5l-4.5 4.5l-6 6q-9 -13 -20.5 -30.5t-22.5 -35.5t-21 -36t-16 -31
q-2 -5 -1 -6.5t2.5 -2t3.5 -1.5t1 -7zM288 391q-2 0 -4 9q-1 4 -1 10l-75 -121l5 -27zM811 572l-28 -4l-8 8v15l8 7h14q3 -2 7.5 -5.5t6.5 -8.5v-12zM785 529q-5 -5 -13 -8.5t-16 -5.5l-11 14q0 3 2 8t2 7l28 4q2 -2 5 -8t3 -11zM492 593q-3 -2 -6 -6.5t-10 -4.5h-20
q-4 4 -4 29h21q6 1 11 -6t8 -12zM771 303q1 -6 -8 -10.5t-17 -7.5v40q6 -1 11 -2t8.5 -1.5t5.5 -0.5v-18zM598 357q2 -8 -8.5 -14t-18.5 -8q-1 3 -4 8.5t-5 10.5q2 2 4 8t4 6h17zM742 177q0 -2 -4.5 -7.5t-6.5 -7.5q-8 0 -14 3.5t-8 3.5v22h22zM568 271q0 -13 -2 -18t-2 -8
h-18q-3 5 -4 13t7 17q8 0 12 -2t7 -2zM218 595q-5 0 -13.5 -1t-16.5 2v20q0 6 3 6t5 3q13 0 22 -11v-19zM205 519l-15 -11q-7 0 -18 11q-1 3 2.5 8.5t8.5 10.5q8 0 12 -2t6 -2q0 -2 2 -7t2 -8zM148 546q-2 0 -4.5 -2t-8.5 -2q-4 0 -11 6t-12 15q0 2 2.5 5.5t4.5 6.5h19z
M315 216l-22 -11l-11 8v14l14 11q5 0 11 -3t8 -8v-11zM308 126q-2 -2 -5.5 -7t-8.5 -7h-18q-3 4 -4 12.5t7 17.5l29 -4v-12z" />
    <glyph glyph-name="X" unicode="X" horiz-adv-x="631" 
d="M635 695l-180 -352l166 -331v-15h-224q-6 0 -14 8t-11 13q-11 23 -18.5 50t-20.5 52l-72 -130h-211q-5 0 -12.5 6.5t-15.5 11.5q0 2 2 9t7 14t12 11t16 1l149 305l-163 310v15l196 34q6 1 14 -1.5t16 -3.5q15 -35 28 -69.5t31 -72.5l76 143l27 -6h53l94 13h51zM564 679
h-149l-20 -61l61 -135q12 17 12 32l-47 107v9l9 9h9l51 -107zM445 452l-65 141l-32 -68l7 -19l-15 -13q-15 8 -29.5 12.5t-26.5 5.5q-11 10 -10 16l-66 -110l43 -75l-5 -5q-3 0 -5 -5.5t-2 -7.5l165 53zM215 625q-9 10 -9.5 23.5t-4.5 24.5l-109 -24l61 -119zM250 590
l-14 10l-68 -90q0 -4 2 -9.5t7 -10.5zM271 552l-12 20l-67 -101l8 -17zM415 298l-21 55l-167 -51l-5 -22l176 56q5 0 7.5 -9.5t4.5 -11.5l-202 -57l-3 -17zM468 202q-8 9 -15 23t-14.5 27t-16 21.5t-19.5 6.5l-82 -29q3 0 7 -3.5t7 -6.5l-4 -19l35 -105zM531 61l-58 119
l-102 -81l21 -38h139zM294 243l-105 -33l-87 -168h36q-3 8 0.5 14.5t10 11t13.5 7t11 2.5q10 0 15 -6q-5 -10 -12 -15.5t-7 -10.5h48zM521 647q0 -4 -4 -11.5t-10 -12.5h-15q-2 3 -3 5t-1 9q0 4 3.5 11t11.5 12h14q2 -3 3 -5t1 -8zM175 608l-2 -4q-4 -4 -8 -4h-22l-11 8
l3 18h21q6 1 12.5 -6t6.5 -12zM325 454l-8 -11q-1 1 -5 2t-8.5 3.5t-8 5.5t-4.5 8q2 5 7.5 8t9.5 3l17 -4v-15zM308 399q-2 -5 -5.5 -10.5t-9.5 -4.5h-21v15l7 8h18zM405 202l-4 -18h-19l-7 7v11l7 8h15zM471 102q0 -10 -6 -14t-17 -8q-4 2 -5.5 4.5t-1.5 8.5t3 10.5t8 9.5
q3 0 8.5 -3t10.5 -8zM215 131l-15 -11h-11q-3 5 -2.5 13t2.5 13h18z" />
    <glyph glyph-name="Y" unicode="Y" horiz-adv-x="592" 
d="M611 675l-14 -52v-26q0 -3 -4 -11.5t-9 -19t-11 -21.5t-10 -19q-11 -20 -28.5 -49t-37.5 -62.5t-40.5 -68.5t-38.5 -66q-4 -7 -5.5 -20t-1.5 -23l16 -113v-61q0 -14 -12.5 -25.5t-29 -20t-32 -13.5t-21.5 -5h-116l-2 291q0 23 -13.5 55.5t-33.5 68.5t-43 73t-43 70
t-33 58.5t-13 38.5v44h178l57 -126q2 0 6 1.5t14 1.5q1 -2 -0.5 -7.5t-5.5 -7.5l35 -88l66 223l27 7h134l60 -10q3 -3 4 -8t1 -9zM554 671h-143l-14 -49l69 -113zM453 469l6 13l-74 100l-4 -15zM207 580l-44 87l-92 -9l58 -126zM228 545l-16 17l-70 -50l13 -16zM240 513
q0 5 -3 10.5t-5 5.5l-68 -56l6 -10zM437 441l-65 94l-50 -147h-9l-60 107l-69 -44l58 -126l14 17h18q3 0 4 -1l2 -2q1 -2 1 -3q-2 -6 -8.5 -13t-13.5 -11l-15 6v-96q26 18 53 34t50 34q10 8 16.5 18t15.5 18q16 30 33 61t25 54zM364 263q0 7 -5 12l-105 -82l-3 -19zM360 210
v22l-116 -93q1 -1 2 -3q2 -4 1 -9q-1 -3 16.5 9t39.5 29q25 19 57 45zM367 130l-3 34q0 11 -12 21l-101 -84v-30q0 -7 2.5 -15.5t5.5 -13.5l27 24h9l6 -6q-3 -2 -3 -5.5v-5.5l62 14v32q-5 0 -10 0.5t-9 5.5v9q5 8 11.5 11.5t14.5 8.5zM470 616l-18 -4l-11 15l7 15h15l7 -11
v-15zM407 438q0 -13 -1.5 -18t-1.5 -7q-3 0 -7.5 -2t-14.5 -2q-4 4 -4.5 12.5t7.5 16.5h22zM184 604q-2 -5 -5.5 -10t-9.5 -5h-21l-4 11q0 5 6.5 12t15.5 7q5 0 9.5 -4.5t8.5 -10.5zM137 609l-29 -4l-7 8q0 2 2.5 8t4.5 11h22l7 -8v-15zM287 404l-4 -15h-11l-18 11v14l8 8
q5 -2 12.5 -6t12.5 -12zM337 338q0 -12 -12 -17.5t-17 -4.5l-7 7v15h36z" />
    <glyph glyph-name="Z" unicode="Z" horiz-adv-x="611" 
d="M615 70l-27 -75h-518q-6 0 -9 3.5t-5 3.5l-11 72q8 13 24.5 26.5t27.5 30.5q4 6 10 17.5t12 24t12 25.5t12 23q6 11 19 22.5t19 23.5q26 57 53 121t68 121h-72l-90 -14h-68v48l-20 100v35l178 17l203 7l90 16l45 -4q0 -2 5 -6.5t5 -10.5v-137l-207 -392h156l81 -13l7 -21
v-64zM541 626v55h-225l-51 -109l80 10q17 3 37 -13v-8q-13 -7 -23 -6l-71 -126h12q51 17 100 36.5t96 37.5q3 5 10.5 21.5t15.5 36t13.5 38t5.5 27.5zM284 671q-3 1 -8 -1.5t-11.5 -12t-15 -28t-19.5 -49.5l-11 -11h19zM235 659l-14 2l-37 -88l16 -5zM461 451h-28l-150 -53
h-18q0 -3 -1.5 -8t-1.5 -8h12q20 8 42.5 14.5t33.5 10.5q12 4 27.5 6t30.5 6t29 11t24 21zM195 665h-79l-31 -14l17 -88h52zM413 381l21 25l-183 -49l-9 -20zM561 52v86l-5 -4q-8 1 -15.5 2.5t-15.5 1.5l-122 -13l-91 -83h181zM402 362q-46 -18 -91.5 -36t-90.5 -38
q-19 -35 -40 -70t-41 -71q-12 -21 -19 -43.5t-13 -42.5q-2 -3 -6 -5t-6 -2q5 -5 12.5 -8.5t12.5 -3.5q14 0 21.5 3t13.5 9t13 14.5t20 18.5q11 10 26 21t26 24q7 8 10.5 18t8.5 15q46 50 76.5 96t64.5 88q1 2 2.5 6t-0.5 7zM348 125q-14 -2 -21.5 -2t-20.5 -10
q-7 -6 -16 -14.5t-17.5 -17.5t-16 -18.5t-11.5 -16.5h36zM281 121q3 11 -3 8.5t-18.5 -14.5t-30 -30t-37.5 -39q5 0 13.5 -1.5t13.5 -1.5zM462 615q-3 -4 -3.5 -9t-0.5 -7q-5 0 -13 2.5t-13 7.5v12l11 14h11zM428 539q-2 -2 -5.5 -6.5t-9.5 -4.5h-21l-4 12q3 5 6.5 10.5
t8.5 10.5q12 0 17 -1.5t8 -1.5v-19zM548 104l-4 -29h-18q-4 4 -4 26l11 7q2 0 7.5 -2t7.5 -2zM485 79l-36 -20v32h36v-12zM292 263l-12 -28q-2 2 -5.5 1t-5.5 -1l-7 31q0 8 7 12h15q2 -2 5 -7.5t3 -7.5zM232 171q1 -7 -4 -11.5t-12 -7.5t-13.5 -4.5t-9.5 -2.5l-8 8v14
q9 11 22 11h17z" />
    <glyph glyph-name="bracketleft" unicode="[" 
 />
    <glyph glyph-name="backslash" unicode="\" 
 />
    <glyph glyph-name="bracketright" unicode="]" 
 />
    <glyph glyph-name="asciicircum" unicode="^" 
 />
    <glyph glyph-name="underscore" unicode="_" 
 />
    <glyph glyph-name="grave" unicode="`" 
 />
    <glyph glyph-name="a" unicode="a" 
 />
    <glyph glyph-name="b" unicode="b" 
 />
    <glyph glyph-name="c" unicode="c" 
 />
    <glyph glyph-name="d" unicode="d" 
 />
    <glyph glyph-name="e" unicode="e" 
 />
    <glyph glyph-name="f" unicode="f" 
 />
    <glyph glyph-name="g" unicode="g" 
 />
    <glyph glyph-name="h" unicode="h" 
 />
    <glyph glyph-name="i" unicode="i" 
 />
    <glyph glyph-name="j" unicode="j" 
 />
    <glyph glyph-name="k" unicode="k" 
 />
    <glyph glyph-name="l" unicode="l" 
 />
    <glyph glyph-name="m" unicode="m" 
 />
    <glyph glyph-name="n" unicode="n" 
 />
    <glyph glyph-name="o" unicode="o" 
 />
    <glyph glyph-name="p" unicode="p" 
 />
    <glyph glyph-name="q" unicode="q" 
 />
    <glyph glyph-name="r" unicode="r" 
 />
    <glyph glyph-name="s" unicode="s" 
 />
    <glyph glyph-name="t" unicode="t" 
 />
    <glyph glyph-name="u" unicode="u" 
 />
    <glyph glyph-name="v" unicode="v" 
 />
    <glyph glyph-name="w" unicode="w" 
 />
    <glyph glyph-name="x" unicode="x" 
 />
    <glyph glyph-name="y" unicode="y" 
 />
    <glyph glyph-name="z" unicode="z" 
 />
    <glyph glyph-name="braceleft" unicode="{" 
 />
    <glyph glyph-name="bar" unicode="|" 
 />
    <glyph glyph-name="braceright" unicode="}" 
 />
    <glyph glyph-name="asciitilde" unicode="~" 
 />
    <glyph glyph-name="DEL" 
 />
    <glyph glyph-name="Adieresis" unicode="&#xc4;" 
 />
    <glyph glyph-name="Aring" unicode="&#xc5;" 
 />
    <glyph glyph-name="Ccedilla" unicode="&#xc7;" 
 />
    <glyph glyph-name="Eacute" unicode="&#xc9;" 
 />
    <glyph glyph-name="Ntilde" unicode="&#xd1;" 
 />
    <glyph glyph-name="Odieresis" unicode="&#xd6;" 
 />
    <glyph glyph-name="Udieresis" unicode="&#xdc;" 
 />
    <glyph glyph-name="aacute" unicode="&#xe1;" 
 />
    <glyph glyph-name="agrave" unicode="&#xe0;" 
 />
    <glyph glyph-name="acircumflex" unicode="&#xe2;" 
 />
    <glyph glyph-name="adieresis" unicode="&#xe4;" 
 />
    <glyph glyph-name="atilde" unicode="&#xe3;" 
 />
    <glyph glyph-name="aring" unicode="&#xe5;" 
 />
    <glyph glyph-name="ccedilla" unicode="&#xe7;" 
 />
    <glyph glyph-name="eacute" unicode="&#xe9;" 
 />
    <glyph glyph-name="egrave" unicode="&#xe8;" 
 />
    <glyph glyph-name="ecircumflex" unicode="&#xea;" 
 />
    <glyph glyph-name="edieresis" unicode="&#xeb;" 
 />
    <glyph glyph-name="iacute" unicode="&#xed;" 
 />
    <glyph glyph-name="igrave" unicode="&#xec;" 
 />
    <glyph glyph-name="icircumflex" unicode="&#xee;" 
 />
    <glyph glyph-name="idieresis" unicode="&#xef;" 
 />
    <glyph glyph-name="ntilde" unicode="&#xf1;" 
 />
    <glyph glyph-name="oacute" unicode="&#xf3;" 
 />
    <glyph glyph-name="ograve" unicode="&#xf2;" 
 />
    <glyph glyph-name="ocircumflex" unicode="&#xf4;" 
 />
    <glyph glyph-name="odieresis" unicode="&#xf6;" 
 />
    <glyph glyph-name="otilde" unicode="&#xf5;" 
 />
    <glyph glyph-name="uacute" unicode="&#xfa;" 
 />
    <glyph glyph-name="ugrave" unicode="&#xf9;" 
 />
    <glyph glyph-name="ucircumflex" unicode="&#xfb;" 
 />
    <glyph glyph-name="udieresis" unicode="&#xfc;" 
 />
    <glyph glyph-name="dagger" unicode="&#x2020;" 
 />
    <glyph glyph-name="degree" unicode="&#xb0;" 
 />
    <glyph glyph-name="cent" unicode="&#xa2;" 
 />
    <glyph glyph-name="sterling" unicode="&#xa3;" 
 />
    <glyph glyph-name="section" unicode="&#xa7;" 
 />
    <glyph glyph-name="bullet" unicode="&#x2022;" 
 />
    <glyph glyph-name="paragraph" unicode="&#xb6;" 
 />
    <glyph glyph-name="germandbls" unicode="&#xdf;" 
 />
    <glyph glyph-name="registered" unicode="&#xae;" 
 />
    <glyph glyph-name="copyright" unicode="&#xa9;" 
 />
    <glyph glyph-name="trademark" unicode="&#x2122;" 
 />
    <glyph glyph-name="acute" unicode="&#xb4;" 
 />
    <glyph glyph-name="dieresis" unicode="&#xa8;" 
 />
    <glyph glyph-name="notequal" unicode="&#x2260;" 
 />
    <glyph glyph-name="AE" unicode="&#xc6;" 
 />
    <glyph glyph-name="Oslash" unicode="&#xd8;" 
 />
    <glyph glyph-name="infinity" unicode="&#x221e;" 
 />
    <glyph glyph-name="plusminus" unicode="&#xb1;" 
 />
    <glyph glyph-name="lessequal" unicode="&#x2264;" 
 />
    <glyph glyph-name="greaterequal" unicode="&#x2265;" 
 />
    <glyph glyph-name="yen" unicode="&#xa5;" 
 />
    <glyph glyph-name="mu" unicode="&#xb5;" 
 />
    <glyph glyph-name="partialdiff" unicode="&#x2202;" 
 />
    <glyph glyph-name="summation" unicode="&#x2211;" 
 />
    <glyph glyph-name="product" unicode="&#x220f;" 
 />
    <glyph glyph-name="pi" unicode="&#x3c0;" 
 />
    <glyph glyph-name="integral" unicode="&#x222b;" 
 />
    <glyph glyph-name="ordfeminine" unicode="&#xaa;" 
 />
    <glyph glyph-name="ordmasculine" unicode="&#xba;" 
 />
    <glyph glyph-name="Omega" unicode="&#x2126;" 
 />
    <glyph glyph-name="ae" unicode="&#xe6;" 
 />
    <glyph glyph-name="oslash" unicode="&#xf8;" 
 />
    <glyph glyph-name="questiondown" unicode="&#xbf;" 
 />
    <glyph glyph-name="exclamdown" unicode="&#xa1;" 
 />
    <glyph glyph-name="logicalnot" unicode="&#xac;" 
 />
    <glyph glyph-name="radical" unicode="&#x221a;" 
 />
    <glyph glyph-name="florin" unicode="&#x192;" 
 />
    <glyph glyph-name="approxequal" unicode="&#x2248;" 
 />
    <glyph glyph-name="Delta" unicode="&#x2206;" 
 />
    <glyph glyph-name="guillemotleft" unicode="&#xab;" 
 />
    <glyph glyph-name="guillemotright" unicode="&#xbb;" 
 />
    <glyph glyph-name="ellipsis" unicode="&#x2026;" 
 />
    <glyph glyph-name="uni00A0" unicode="&#xa0;" 
 />
    <glyph glyph-name="Agrave" unicode="&#xc0;" 
 />
    <glyph glyph-name="Atilde" unicode="&#xc3;" 
 />
    <glyph glyph-name="Otilde" unicode="&#xd5;" 
 />
    <glyph glyph-name="OE" unicode="&#x152;" 
 />
    <glyph glyph-name="oe" unicode="&#x153;" 
 />
    <glyph glyph-name="endash" unicode="&#x2013;" 
 />
    <glyph glyph-name="emdash" unicode="&#x2014;" 
 />
    <glyph glyph-name="quotedblleft" unicode="&#x201c;" 
 />
    <glyph glyph-name="quotedblright" unicode="&#x201d;" 
 />
    <glyph glyph-name="quoteleft" unicode="&#x2018;" 
 />
    <glyph glyph-name="quoteright" unicode="&#x2019;" 
 />
    <glyph glyph-name="divide" unicode="&#xf7;" 
 />
    <glyph glyph-name="lozenge" unicode="&#x25ca;" 
 />
    <glyph glyph-name="ydieresis" unicode="&#xff;" 
 />
    <glyph glyph-name="Ydieresis" unicode="&#x178;" 
 />
    <glyph glyph-name="fraction" unicode="&#x2044;" 
 />
    <glyph glyph-name="Euro" unicode="&#x20ac;" 
 />
    <glyph glyph-name="guilsinglleft" unicode="&#x2039;" 
 />
    <glyph glyph-name="guilsinglright" unicode="&#x203a;" 
 />
    <glyph glyph-name="fi" unicode="&#xfb01;" 
 />
    <glyph glyph-name="fl" unicode="&#xfb02;" 
 />
    <glyph glyph-name="daggerdbl" unicode="&#x2021;" 
 />
    <glyph glyph-name="periodcentered" unicode="&#xb7;" 
 />
    <glyph glyph-name="quotesinglbase" unicode="&#x201a;" 
 />
    <glyph glyph-name="quotedblbase" unicode="&#x201e;" 
 />
    <glyph glyph-name="perthousand" unicode="&#x2030;" 
 />
    <glyph glyph-name="Acircumflex" unicode="&#xc2;" 
 />
    <glyph glyph-name="Ecircumflex" unicode="&#xca;" 
 />
    <glyph glyph-name="Aacute" unicode="&#xc1;" 
 />
    <glyph glyph-name="Edieresis" unicode="&#xcb;" 
 />
    <glyph glyph-name="Egrave" unicode="&#xc8;" 
 />
    <glyph glyph-name="Iacute" unicode="&#xcd;" 
 />
    <glyph glyph-name="Icircumflex" unicode="&#xce;" 
 />
    <glyph glyph-name="Idieresis" unicode="&#xcf;" 
 />
    <glyph glyph-name="Igrave" unicode="&#xcc;" 
 />
    <glyph glyph-name="Oacute" unicode="&#xd3;" 
 />
    <glyph glyph-name="Ocircumflex" unicode="&#xd4;" 
 />
    <glyph glyph-name="apple" unicode="&#xf8ff;" 
 />
    <glyph glyph-name="Ograve" unicode="&#xd2;" 
 />
    <glyph glyph-name="Uacute" unicode="&#xda;" 
 />
    <glyph glyph-name="Ucircumflex" unicode="&#xdb;" 
 />
    <glyph glyph-name="Ugrave" unicode="&#xd9;" 
 />
    <glyph glyph-name="breve" unicode="&#x2d8;" horiz-adv-x="292" 
 />
    <glyph glyph-name="dotaccent" unicode="&#x2d9;" horiz-adv-x="292" 
 />
    </font>
</defs>
</svg>
